<svg width="41" height="41" viewBox="0 0 41 41" fill="none" xmlns="http://www.w3.org/2000/svg">
<path d="M20.5 37.5832C20.1014 37.5832 19.7597 37.4693 19.475 37.2415C19.1903 37.0137 18.9768 36.7148 18.8344 36.3446C18.2934 34.7502 17.6101 33.2554 16.7844 31.8603C15.9872 30.4651 14.8625 28.828 13.4104 26.9488C11.9584 25.0696 10.7768 23.2759 9.86565 21.5675C8.98301 19.8592 8.54169 17.795 8.54169 15.3748C8.54169 12.0436 9.69481 9.22484 12.0011 6.91859C14.3358 4.58386 17.1688 3.4165 20.5 3.4165C23.8313 3.4165 26.65 4.58386 28.9563 6.91859C31.291 9.22484 32.4584 12.0436 32.4584 15.3748C32.4584 17.9658 31.9601 20.1297 30.9636 21.8665C29.9955 23.5748 28.8709 25.2689 27.5896 26.9488C26.0521 28.9988 24.8847 30.7071 24.0875 32.0738C23.3188 33.412 22.6781 34.8356 22.1656 36.3446C22.0233 36.7432 21.7955 37.0564 21.4823 37.2842C21.1976 37.4835 20.8702 37.5832 20.5 37.5832ZM20.5 31.4759C20.984 30.5078 21.525 29.554 22.1229 28.6144C22.7493 27.6748 23.6604 26.4221 24.8563 24.8561C26.0806 23.2616 27.0771 21.7953 27.8458 20.4571C28.6431 19.0905 29.0417 17.3964 29.0417 15.3748C29.0417 13.0116 28.2018 11.0044 26.5219 9.35296C24.8705 7.6731 22.8632 6.83317 20.5 6.83317C18.1368 6.83317 16.1153 7.6731 14.4354 9.35296C12.784 11.0044 11.9584 13.0116 11.9584 15.3748C11.9584 17.3964 12.3427 19.0905 13.1115 20.4571C13.9087 21.7953 14.9195 23.2616 16.1438 24.8561C17.3396 26.4221 18.2365 27.6748 18.8344 28.6144C19.4608 29.554 20.016 30.5078 20.5 31.4759ZM20.5 19.6457C21.6959 19.6457 22.7066 19.2328 23.5323 18.4071C24.358 17.5814 24.7709 16.5707 24.7709 15.3748C24.7709 14.179 24.358 13.1682 23.5323 12.3425C22.7066 11.5169 21.6959 11.104 20.5 11.104C19.3042 11.104 18.2934 11.5169 17.4677 12.3425C16.642 13.1682 16.2292 14.179 16.2292 15.3748C16.2292 16.5707 16.642 17.5814 17.4677 18.4071C18.2934 19.2328 19.3042 19.6457 20.5 19.6457Z" fill="#1D1B20"/>
</svg>
