<svg width="110" height="32" viewBox="0 0 110 32" fill="none" xmlns="http://www.w3.org/2000/svg">
<rect x="79.0371" width="1.62963" height="32" fill="#FF2E63"/>
<g clip-path="url(#clip0_400_495)">
<path d="M102.625 18.25V21.25C102.625 21.6478 102.458 22.0294 102.161 22.3107C101.864 22.592 101.462 22.75 101.042 22.75H89.9583C89.5384 22.75 89.1357 22.592 88.8387 22.3107C88.5418 22.0294 88.375 21.6478 88.375 21.25V18.25M99.4583 13L95.5 9.25M95.5 9.25L91.5417 13M95.5 9.25V18.25" stroke="#FF2E63" stroke-width="4" stroke-linecap="round" stroke-linejoin="round"/>
</g>
<mask id="path-4-outside-1_400_495" maskUnits="userSpaceOnUse" x="12" y="7" width="53" height="15" fill="black">
<rect fill="white" x="12" y="7" width="53" height="15"/>
<path d="M16.4 21.16C15.248 21.16 14.384 20.8613 13.808 20.264C13.2427 19.656 12.96 18.7067 12.96 17.416C12.96 17.2027 12.9653 16.9733 12.976 16.728C12.9973 16.472 13.0187 16.2213 13.04 15.976H16.4V17.096H14.384V17.416C14.384 18.088 14.4587 18.616 14.608 19C14.7573 19.3733 14.976 19.6347 15.264 19.784C15.5627 19.9333 15.9307 20.008 16.368 20.008C16.848 20.008 17.264 19.9173 17.616 19.736C17.968 19.5547 18.24 19.224 18.432 18.744C18.624 18.264 18.72 17.576 18.72 16.68C18.72 15.8907 18.6347 15.2453 18.464 14.744C18.2933 14.2427 18.0107 13.8693 17.616 13.624C17.232 13.3787 16.7093 13.256 16.048 13.256C15.7067 13.256 15.376 13.288 15.056 13.352C14.736 13.4053 14.4267 13.4907 14.128 13.608C13.8293 13.7147 13.536 13.8533 13.248 14.024V12.696C13.4613 12.5787 13.7227 12.4773 14.032 12.392C14.3413 12.296 14.6827 12.2213 15.056 12.168C15.4293 12.104 15.8187 12.072 16.224 12.072C17.1627 12.072 17.92 12.264 18.496 12.648C19.0827 13.0213 19.5093 13.5547 19.776 14.248C20.0427 14.9307 20.176 15.7413 20.176 16.68C20.176 17.6187 20.0533 18.424 19.808 19.096C19.5627 19.768 19.1627 20.28 18.608 20.632C18.064 20.984 17.328 21.16 16.4 21.16ZM17.5752 10.84C17.1272 10.84 16.7699 10.776 16.5032 10.648C16.2366 10.52 16.0446 10.3547 15.9272 10.152C15.7992 9.94933 15.7352 9.736 15.7352 9.512C15.7352 9.352 15.7619 9.18133 15.8152 9C15.8579 8.808 15.9166 8.65333 15.9912 8.536L17.1912 8.744C17.1699 8.78667 17.1486 8.86133 17.1272 8.968C17.1059 9.064 17.0952 9.15467 17.0952 9.24C17.0952 9.37867 17.1379 9.50133 17.2232 9.608C17.3086 9.704 17.4526 9.752 17.6552 9.752H21.7033V10.84H17.5752ZM23.4275 21L21.8435 12.232H23.2995L23.9235 16.04C23.9768 16.3493 24.0302 16.7493 24.0835 17.24C24.1368 17.7307 24.2008 18.312 24.2755 18.984H24.3235C24.4195 18.5253 24.5102 18.1147 24.5955 17.752C24.6915 17.3893 24.7768 17.064 24.8515 16.776C24.9368 16.4773 25.0115 16.216 25.0755 15.992L26.1475 12.232H27.3155L28.4035 15.992C28.4675 16.216 28.5368 16.4773 28.6115 16.776C28.6968 17.064 28.7822 17.3893 28.8675 17.752C28.9635 18.1147 29.0595 18.5253 29.1555 18.984H29.2195C29.2835 18.312 29.3422 17.7307 29.3955 17.24C29.4488 16.7493 29.5022 16.3493 29.5555 16.04L30.1955 12.232H31.6515L30.0675 21H28.6755L27.2035 16.232C27.1288 15.9653 27.0542 15.688 26.9795 15.4C26.9155 15.112 26.8515 14.7333 26.7875 14.264H26.7235C26.6808 14.5733 26.6328 14.8453 26.5795 15.08C26.5262 15.3147 26.4728 15.5227 26.4195 15.704C26.3662 15.8853 26.3128 16.0613 26.2595 16.232L24.8195 21H23.4275ZM34.0725 13.832V10.696C34.0725 10.056 33.9178 9.59733 33.6085 9.32C33.3098 9.04267 32.9258 8.904 32.4565 8.904V8.296L33.6405 7.784H37.9125V8.904H34.6645L34.6485 8.968C34.8832 9.128 35.0805 9.37333 35.2405 9.704C35.4112 10.024 35.4965 10.4453 35.4965 10.968V13.832H34.0725ZM35.8165 21.16C35.5285 21.16 35.2512 21.112 34.9845 21.016C34.7178 20.92 34.4992 20.7493 34.3285 20.504C34.1578 20.2587 34.0725 19.9173 34.0725 19.48V12.232H35.4965V19.304C35.4965 19.5493 35.5498 19.7253 35.6565 19.832C35.7632 19.9387 35.9338 19.992 36.1685 19.992C36.2645 19.992 36.3658 19.9813 36.4725 19.96C36.5792 19.9387 36.6805 19.912 36.7765 19.88L36.9685 20.92C36.7658 21.016 36.5685 21.08 36.3765 21.112C36.1845 21.144 35.9978 21.16 35.8165 21.16ZM38.6584 21V12.232H40.0824V16.024H40.1304L43.7784 12.232H45.4424V12.28L40.0824 17.704V21H38.6584ZM44.0984 21V17.912C44.0984 17.2827 43.9064 16.792 43.5224 16.44C43.1384 16.088 42.5037 15.912 41.6184 15.912L42.4504 14.872C43.1224 14.872 43.6824 14.9947 44.1304 15.24C44.589 15.4747 44.9357 15.816 45.1704 16.264C45.405 16.712 45.5224 17.2507 45.5224 17.88V21H44.0984ZM53.057 21V15.16C53.057 14.4667 52.897 13.976 52.577 13.688C52.2677 13.3893 51.745 13.24 51.009 13.24C50.4757 13.24 49.9637 13.3147 49.473 13.464C48.993 13.6027 48.5343 13.8 48.097 14.056V12.728C48.4063 12.568 48.8223 12.4187 49.345 12.28C49.8783 12.1413 50.4757 12.072 51.137 12.072C51.7023 12.072 52.193 12.136 52.609 12.264C53.025 12.3813 53.3663 12.5627 53.633 12.808C53.9103 13.0533 54.1183 13.368 54.257 13.752C54.3957 14.1253 54.465 14.568 54.465 15.08V21H53.057ZM50.305 21.16C49.3663 21.16 48.6463 20.9467 48.145 20.52C47.6543 20.0827 47.409 19.4587 47.409 18.648C47.409 17.7627 47.729 17.08 48.369 16.6C49.0197 16.12 50.0703 15.8373 51.521 15.752L53.345 15.64V16.824L51.713 16.936C50.625 17.0107 49.873 17.1813 49.457 17.448C49.0517 17.7147 48.849 18.104 48.849 18.616C48.849 19.096 48.9983 19.448 49.297 19.672C49.6063 19.896 50.033 20.008 50.577 20.008C50.7583 20.008 50.9237 19.9973 51.073 19.976C51.2223 19.944 51.3663 19.9067 51.505 19.864L51.729 20.936C51.5263 21.0107 51.3023 21.064 51.057 21.096C50.8223 21.1387 50.5717 21.16 50.305 21.16ZM60.0536 21.16C59.2003 21.16 58.5283 20.9627 58.0376 20.568C57.5576 20.1627 57.2163 19.6187 57.0136 18.936C56.8216 18.2533 56.7256 17.5013 56.7256 16.68C56.7256 15.7733 56.8163 15.0267 56.9976 14.44C57.1896 13.8427 57.4563 13.3733 57.7976 13.032C58.1496 12.68 58.5656 12.4347 59.0456 12.296C59.5363 12.1467 60.075 12.072 60.6616 12.072C61.515 12.072 62.2083 12.2 62.7416 12.456C63.2856 12.7013 63.6856 13.0533 63.9416 13.512C64.1976 13.9707 64.3256 14.52 64.3256 15.16V21H62.9176V15.288C62.9176 14.6267 62.7523 14.1253 62.4216 13.784C62.091 13.432 61.5203 13.256 60.7096 13.256C60.219 13.256 59.7763 13.3467 59.3816 13.528C58.9976 13.7093 58.6936 14.0453 58.4696 14.536C58.2563 15.0267 58.1496 15.7467 58.1496 16.696C58.1496 17.3147 58.2083 17.8747 58.3256 18.376C58.4536 18.8667 58.6723 19.256 58.9816 19.544C59.291 19.832 59.723 19.976 60.2776 19.976C60.4376 19.976 60.587 19.9653 60.7256 19.944C60.8643 19.9227 60.9976 19.8907 61.1256 19.848L61.2696 20.952C61.099 21.0267 60.9016 21.08 60.6776 21.112C60.4643 21.144 60.2563 21.16 60.0536 21.16Z"/>
</mask>
<path d="M16.4 21.16C15.248 21.16 14.384 20.8613 13.808 20.264C13.2427 19.656 12.96 18.7067 12.96 17.416C12.96 17.2027 12.9653 16.9733 12.976 16.728C12.9973 16.472 13.0187 16.2213 13.04 15.976H16.4V17.096H14.384V17.416C14.384 18.088 14.4587 18.616 14.608 19C14.7573 19.3733 14.976 19.6347 15.264 19.784C15.5627 19.9333 15.9307 20.008 16.368 20.008C16.848 20.008 17.264 19.9173 17.616 19.736C17.968 19.5547 18.24 19.224 18.432 18.744C18.624 18.264 18.72 17.576 18.72 16.68C18.72 15.8907 18.6347 15.2453 18.464 14.744C18.2933 14.2427 18.0107 13.8693 17.616 13.624C17.232 13.3787 16.7093 13.256 16.048 13.256C15.7067 13.256 15.376 13.288 15.056 13.352C14.736 13.4053 14.4267 13.4907 14.128 13.608C13.8293 13.7147 13.536 13.8533 13.248 14.024V12.696C13.4613 12.5787 13.7227 12.4773 14.032 12.392C14.3413 12.296 14.6827 12.2213 15.056 12.168C15.4293 12.104 15.8187 12.072 16.224 12.072C17.1627 12.072 17.92 12.264 18.496 12.648C19.0827 13.0213 19.5093 13.5547 19.776 14.248C20.0427 14.9307 20.176 15.7413 20.176 16.68C20.176 17.6187 20.0533 18.424 19.808 19.096C19.5627 19.768 19.1627 20.28 18.608 20.632C18.064 20.984 17.328 21.16 16.4 21.16ZM17.5752 10.84C17.1272 10.84 16.7699 10.776 16.5032 10.648C16.2366 10.52 16.0446 10.3547 15.9272 10.152C15.7992 9.94933 15.7352 9.736 15.7352 9.512C15.7352 9.352 15.7619 9.18133 15.8152 9C15.8579 8.808 15.9166 8.65333 15.9912 8.536L17.1912 8.744C17.1699 8.78667 17.1486 8.86133 17.1272 8.968C17.1059 9.064 17.0952 9.15467 17.0952 9.24C17.0952 9.37867 17.1379 9.50133 17.2232 9.608C17.3086 9.704 17.4526 9.752 17.6552 9.752H21.7033V10.84H17.5752ZM23.4275 21L21.8435 12.232H23.2995L23.9235 16.04C23.9768 16.3493 24.0302 16.7493 24.0835 17.24C24.1368 17.7307 24.2008 18.312 24.2755 18.984H24.3235C24.4195 18.5253 24.5102 18.1147 24.5955 17.752C24.6915 17.3893 24.7768 17.064 24.8515 16.776C24.9368 16.4773 25.0115 16.216 25.0755 15.992L26.1475 12.232H27.3155L28.4035 15.992C28.4675 16.216 28.5368 16.4773 28.6115 16.776C28.6968 17.064 28.7822 17.3893 28.8675 17.752C28.9635 18.1147 29.0595 18.5253 29.1555 18.984H29.2195C29.2835 18.312 29.3422 17.7307 29.3955 17.24C29.4488 16.7493 29.5022 16.3493 29.5555 16.04L30.1955 12.232H31.6515L30.0675 21H28.6755L27.2035 16.232C27.1288 15.9653 27.0542 15.688 26.9795 15.4C26.9155 15.112 26.8515 14.7333 26.7875 14.264H26.7235C26.6808 14.5733 26.6328 14.8453 26.5795 15.08C26.5262 15.3147 26.4728 15.5227 26.4195 15.704C26.3662 15.8853 26.3128 16.0613 26.2595 16.232L24.8195 21H23.4275ZM34.0725 13.832V10.696C34.0725 10.056 33.9178 9.59733 33.6085 9.32C33.3098 9.04267 32.9258 8.904 32.4565 8.904V8.296L33.6405 7.784H37.9125V8.904H34.6645L34.6485 8.968C34.8832 9.128 35.0805 9.37333 35.2405 9.704C35.4112 10.024 35.4965 10.4453 35.4965 10.968V13.832H34.0725ZM35.8165 21.16C35.5285 21.16 35.2512 21.112 34.9845 21.016C34.7178 20.92 34.4992 20.7493 34.3285 20.504C34.1578 20.2587 34.0725 19.9173 34.0725 19.48V12.232H35.4965V19.304C35.4965 19.5493 35.5498 19.7253 35.6565 19.832C35.7632 19.9387 35.9338 19.992 36.1685 19.992C36.2645 19.992 36.3658 19.9813 36.4725 19.96C36.5792 19.9387 36.6805 19.912 36.7765 19.88L36.9685 20.92C36.7658 21.016 36.5685 21.08 36.3765 21.112C36.1845 21.144 35.9978 21.16 35.8165 21.16ZM38.6584 21V12.232H40.0824V16.024H40.1304L43.7784 12.232H45.4424V12.28L40.0824 17.704V21H38.6584ZM44.0984 21V17.912C44.0984 17.2827 43.9064 16.792 43.5224 16.44C43.1384 16.088 42.5037 15.912 41.6184 15.912L42.4504 14.872C43.1224 14.872 43.6824 14.9947 44.1304 15.24C44.589 15.4747 44.9357 15.816 45.1704 16.264C45.405 16.712 45.5224 17.2507 45.5224 17.88V21H44.0984ZM53.057 21V15.16C53.057 14.4667 52.897 13.976 52.577 13.688C52.2677 13.3893 51.745 13.24 51.009 13.24C50.4757 13.24 49.9637 13.3147 49.473 13.464C48.993 13.6027 48.5343 13.8 48.097 14.056V12.728C48.4063 12.568 48.8223 12.4187 49.345 12.28C49.8783 12.1413 50.4757 12.072 51.137 12.072C51.7023 12.072 52.193 12.136 52.609 12.264C53.025 12.3813 53.3663 12.5627 53.633 12.808C53.9103 13.0533 54.1183 13.368 54.257 13.752C54.3957 14.1253 54.465 14.568 54.465 15.08V21H53.057ZM50.305 21.16C49.3663 21.16 48.6463 20.9467 48.145 20.52C47.6543 20.0827 47.409 19.4587 47.409 18.648C47.409 17.7627 47.729 17.08 48.369 16.6C49.0197 16.12 50.0703 15.8373 51.521 15.752L53.345 15.64V16.824L51.713 16.936C50.625 17.0107 49.873 17.1813 49.457 17.448C49.0517 17.7147 48.849 18.104 48.849 18.616C48.849 19.096 48.9983 19.448 49.297 19.672C49.6063 19.896 50.033 20.008 50.577 20.008C50.7583 20.008 50.9237 19.9973 51.073 19.976C51.2223 19.944 51.3663 19.9067 51.505 19.864L51.729 20.936C51.5263 21.0107 51.3023 21.064 51.057 21.096C50.8223 21.1387 50.5717 21.16 50.305 21.16ZM60.0536 21.16C59.2003 21.16 58.5283 20.9627 58.0376 20.568C57.5576 20.1627 57.2163 19.6187 57.0136 18.936C56.8216 18.2533 56.7256 17.5013 56.7256 16.68C56.7256 15.7733 56.8163 15.0267 56.9976 14.44C57.1896 13.8427 57.4563 13.3733 57.7976 13.032C58.1496 12.68 58.5656 12.4347 59.0456 12.296C59.5363 12.1467 60.075 12.072 60.6616 12.072C61.515 12.072 62.2083 12.2 62.7416 12.456C63.2856 12.7013 63.6856 13.0533 63.9416 13.512C64.1976 13.9707 64.3256 14.52 64.3256 15.16V21H62.9176V15.288C62.9176 14.6267 62.7523 14.1253 62.4216 13.784C62.091 13.432 61.5203 13.256 60.7096 13.256C60.219 13.256 59.7763 13.3467 59.3816 13.528C58.9976 13.7093 58.6936 14.0453 58.4696 14.536C58.2563 15.0267 58.1496 15.7467 58.1496 16.696C58.1496 17.3147 58.2083 17.8747 58.3256 18.376C58.4536 18.8667 58.6723 19.256 58.9816 19.544C59.291 19.832 59.723 19.976 60.2776 19.976C60.4376 19.976 60.587 19.9653 60.7256 19.944C60.8643 19.9227 60.9976 19.8907 61.1256 19.848L61.2696 20.952C61.099 21.0267 60.9016 21.08 60.6776 21.112C60.4643 21.144 60.2563 21.16 60.0536 21.16Z" fill="#FF2E63"/>
<path d="M13.808 20.264L13.5883 20.4683L13.592 20.4722L13.808 20.264ZM12.976 16.728L12.6768 16.7031L12.6763 16.715L12.976 16.728ZM13.04 15.976V15.676H12.765L12.7411 15.95L13.04 15.976ZM16.4 15.976H16.7V15.676H16.4V15.976ZM16.4 17.096V17.396H16.7V17.096H16.4ZM14.384 17.096V16.796H14.084V17.096H14.384ZM14.608 19L14.3284 19.1087L14.3295 19.1114L14.608 19ZM15.264 19.784L15.1259 20.0504L15.1298 20.0523L15.264 19.784ZM17.616 19.736L17.4786 19.4693L17.4786 19.4693L17.616 19.736ZM18.464 14.744L18.748 14.6473L18.748 14.6473L18.464 14.744ZM17.616 13.624L17.4545 13.8768L17.4576 13.8788L17.616 13.624ZM15.056 13.352L15.1053 13.6481L15.1148 13.6462L15.056 13.352ZM14.128 13.608L14.229 13.8907L14.2377 13.8872L14.128 13.608ZM13.248 14.024H12.948V14.5505L13.4009 14.2821L13.248 14.024ZM13.248 12.696L13.1034 12.4331L12.948 12.5186V12.696H13.248ZM14.032 12.392L14.1118 12.6813L14.1209 12.6785L14.032 12.392ZM15.056 12.168L15.0984 12.4651L15.1067 12.4637L15.056 12.168ZM18.496 12.648L18.3296 12.8977L18.3349 12.9011L18.496 12.648ZM19.776 14.248L19.496 14.3557L19.4966 14.3572L19.776 14.248ZM19.808 19.096L20.0898 19.1989L20.0898 19.1989L19.808 19.096ZM18.608 20.632L18.4472 20.3787L18.445 20.3801L18.608 20.632ZM16.4 20.86C15.2971 20.86 14.5243 20.5746 14.024 20.0558L13.592 20.4722C14.2437 21.148 15.1989 21.46 16.4 21.46V20.86ZM14.0277 20.0597C13.5362 19.5311 13.26 18.6714 13.26 17.416H12.66C12.66 18.742 12.9492 19.7809 13.5883 20.4683L14.0277 20.0597ZM13.26 17.416C13.26 17.2076 13.2652 16.9827 13.2757 16.741L12.6763 16.715C12.6655 16.964 12.66 17.1977 12.66 17.416H13.26ZM13.275 16.7529C13.2963 16.4973 13.3176 16.2469 13.3389 16.002L12.7411 15.95C12.7198 16.1957 12.6984 16.4467 12.677 16.7031L13.275 16.7529ZM13.04 16.276H16.4V15.676H13.04V16.276ZM16.1 15.976V17.096H16.7V15.976H16.1ZM16.4 16.796H14.384V17.396H16.4V16.796ZM14.084 17.096V17.416H14.684V17.096H14.084ZM14.084 17.416C14.084 18.1047 14.1597 18.6751 14.3284 19.1087L14.8876 18.8913C14.7576 18.5569 14.684 18.0713 14.684 17.416H14.084ZM14.3295 19.1114C14.4989 19.535 14.7598 19.8605 15.1259 20.0503L15.4021 19.5177C15.1922 19.4088 15.0158 19.2117 14.8865 18.8886L14.3295 19.1114ZM15.1298 20.0523C15.481 20.2279 15.898 20.308 16.368 20.308V19.708C15.9634 19.708 15.6443 19.6388 15.3982 19.5157L15.1298 20.0523ZM16.368 20.308C16.8858 20.308 17.3508 20.2101 17.7534 20.0027L17.4786 19.4693C17.1772 19.6246 16.8102 19.708 16.368 19.708V20.308ZM17.7534 20.0027C18.1871 19.7793 18.5001 19.3816 18.7105 18.8554L18.1535 18.6326C17.9799 19.0664 17.7489 19.3301 17.4786 19.4693L17.7534 20.0027ZM18.7105 18.8554C18.9235 18.3231 19.02 17.5903 19.02 16.68H18.42C18.42 17.5617 18.3245 18.2049 18.1535 18.6326L18.7105 18.8554ZM19.02 16.68C19.02 15.8723 18.9331 15.1911 18.748 14.6473L18.18 14.8407C18.3362 15.2996 18.42 15.909 18.42 16.68H19.02ZM18.748 14.6473C18.5583 14.09 18.2361 13.6562 17.7744 13.3692L17.4576 13.8788C17.7853 14.0825 18.0284 14.3953 18.18 14.8407L18.748 14.6473ZM17.7775 13.3712C17.3282 13.0841 16.7421 12.956 16.048 12.956V13.556C16.6765 13.556 17.1358 13.6732 17.4545 13.8768L17.7775 13.3712ZM16.048 12.956C15.6878 12.956 15.3374 12.9898 14.9972 13.0578L15.1148 13.6462C15.4146 13.5862 15.7255 13.556 16.048 13.556V12.956ZM15.0067 13.0561C14.6663 13.1128 14.3367 13.2037 14.0183 13.3288L14.2377 13.8872C14.5167 13.7776 14.8057 13.6978 15.1053 13.6479L15.0067 13.0561ZM14.0271 13.3255C13.7094 13.439 13.3987 13.586 13.0951 13.7659L13.4009 14.2821C13.6733 14.1207 13.9493 13.9904 14.2289 13.8905L14.0271 13.3255ZM13.548 14.024V12.696H12.948V14.024H13.548ZM13.3926 12.9589C13.5801 12.8557 13.8183 12.7622 14.1118 12.6812L13.9522 12.1028C13.627 12.1925 13.3425 12.3016 13.1034 12.4331L13.3926 12.9589ZM14.1209 12.6785C14.4128 12.5879 14.7383 12.5164 15.0984 12.465L15.0136 11.871C14.627 11.9262 14.2698 12.0041 13.9431 12.1055L14.1209 12.6785ZM15.1067 12.4637C15.4622 12.4027 15.8345 12.372 16.224 12.372V11.772C15.8029 11.772 15.3965 11.8053 15.0053 11.8723L15.1067 12.4637ZM16.224 12.372C17.124 12.372 17.8176 12.5563 18.3296 12.8976L18.6624 12.3984C18.0224 11.9717 17.2014 11.772 16.224 11.772V12.372ZM18.3349 12.9011C18.8636 13.2375 19.2507 13.718 19.496 14.3557L20.056 14.1403C19.768 13.3914 19.3017 12.8051 18.6571 12.3949L18.3349 12.9011ZM19.4966 14.3572C19.7464 14.9968 19.876 15.7687 19.876 16.68H20.476C20.476 15.714 20.3389 14.8645 20.0554 14.1388L19.4966 14.3572ZM19.876 16.68C19.876 17.5939 19.7564 18.3626 19.5262 18.9931L20.0898 19.1989C20.3503 18.4854 20.476 17.6434 20.476 16.68H19.876ZM19.5262 18.9931C19.3014 19.6089 18.941 20.0653 18.4473 20.3787L18.7687 20.8853C19.3843 20.4947 19.8239 19.9271 20.0898 19.1989L19.5262 18.9931ZM18.445 20.3801C17.9663 20.6899 17.294 20.86 16.4 20.86V21.46C17.362 21.46 18.1617 21.2781 18.771 20.8839L18.445 20.3801ZM16.5032 10.648L16.3734 10.9185L16.3734 10.9185L16.5032 10.648ZM15.9272 10.152L16.1871 10.0016L16.1809 9.9918L15.9272 10.152ZM15.8152 9L16.1031 9.08465L16.1059 9.07495L16.1081 9.06508L15.8152 9ZM15.9912 8.536L16.0425 8.24041L15.8455 8.20626L15.7382 8.37494L15.9912 8.536ZM17.1912 8.744L17.4596 8.87816L17.64 8.51731L17.2425 8.44841L17.1912 8.744ZM17.1272 8.968L17.4202 9.03309L17.4214 9.02683L17.1272 8.968ZM17.2232 9.608L16.989 9.79541L16.9939 9.80149L16.999 9.80731L17.2232 9.608ZM21.7033 9.752H22.0033V9.452H21.7033V9.752ZM21.7033 10.84V11.14H22.0033V10.84H21.7033ZM17.5752 10.54C17.1512 10.54 16.8438 10.4787 16.6331 10.3775L16.3734 10.9185C16.6961 11.0733 17.1033 11.14 17.5752 11.14V10.54ZM16.6331 10.3775C16.4065 10.2688 16.2669 10.1399 16.1869 10.0017L15.6676 10.3023C15.8222 10.5694 16.0667 10.7712 16.3734 10.9185L16.6331 10.3775ZM16.1809 9.9918C16.081 9.83357 16.0352 9.67528 16.0352 9.512H15.4352C15.4352 9.79672 15.5175 10.0651 15.6736 10.3122L16.1809 9.9918ZM16.0352 9.512C16.0352 9.38529 16.0564 9.24333 16.1031 9.08465L15.5274 8.91535C15.4674 9.11934 15.4352 9.31871 15.4352 9.512H16.0352ZM16.1081 9.06508C16.1461 8.89416 16.1944 8.77551 16.2443 8.69706L15.7382 8.37494C15.6387 8.53115 15.5697 8.72184 15.5224 8.93492L16.1081 9.06508ZM15.94 8.83159L17.14 9.03959L17.2425 8.44841L16.0425 8.24041L15.94 8.83159ZM16.9229 8.60984C16.8821 8.69152 16.8547 8.80104 16.8331 8.90916L17.4214 9.02683C17.4311 8.97856 17.4399 8.94159 17.4477 8.91442C17.456 8.88532 17.4607 8.87588 17.4596 8.87816L16.9229 8.60984ZM16.8344 8.90292C16.809 9.01713 16.7952 9.12976 16.7952 9.24H17.3952C17.3952 9.17957 17.4028 9.11087 17.4201 9.03308L16.8344 8.90292ZM16.7952 9.24C16.7952 9.44567 16.8604 9.63468 16.989 9.79541L17.4575 9.42059C17.4154 9.36799 17.3952 9.31166 17.3952 9.24H16.7952ZM16.999 9.80731C17.1672 9.99651 17.4157 10.052 17.6552 10.052V9.452C17.4894 9.452 17.45 9.41149 17.4475 9.40869L16.999 9.80731ZM17.6552 10.052H21.7033V9.452H17.6552V10.052ZM21.4033 9.752V10.84H22.0033V9.752H21.4033ZM21.7033 10.54H17.5752V11.14H21.7033V10.54ZM23.4275 21L23.1323 21.0533L23.1768 21.3H23.4275V21ZM21.8435 12.232V11.932H21.4844L21.5483 12.2853L21.8435 12.232ZM23.2995 12.232L23.5956 12.1835L23.5543 11.932H23.2995V12.232ZM23.9235 16.04L23.6274 16.0885L23.6279 16.091L23.9235 16.04ZM24.2755 18.984L23.9773 19.0171L24.007 19.284H24.2755V18.984ZM24.3235 18.984V19.284H24.5672L24.6171 19.0455L24.3235 18.984ZM24.5955 17.752L24.3054 17.6752L24.3035 17.6833L24.5955 17.752ZM24.8515 16.776L24.563 16.6936L24.5611 16.7007L24.8515 16.776ZM25.0755 15.992L25.364 16.0744L25.364 16.0743L25.0755 15.992ZM26.1475 12.232V11.932H25.9211L25.859 12.1497L26.1475 12.232ZM27.3155 12.232L27.6037 12.1486L27.541 11.932H27.3155V12.232ZM28.4035 15.992L28.692 15.9096L28.6917 15.9086L28.4035 15.992ZM28.6115 16.776L28.3202 16.8488L28.3239 16.8612L28.6115 16.776ZM28.8675 17.752L28.5754 17.8207L28.5775 17.8288L28.8675 17.752ZM29.1555 18.984L28.8619 19.0455L28.9118 19.284H29.1555V18.984ZM29.2195 18.984V19.284H29.4923L29.5181 19.0124L29.2195 18.984ZM29.5555 16.04L29.8511 16.091L29.8514 16.0897L29.5555 16.04ZM30.1955 12.232V11.932H29.9417L29.8996 12.1823L30.1955 12.232ZM31.6515 12.232L31.9467 12.2853L32.0106 11.932H31.6515V12.232ZM30.0675 21V21.3H30.3182L30.3627 21.0533L30.0675 21ZM28.6755 21L28.3889 21.0885L28.4541 21.3H28.6755V21ZM27.2035 16.232L26.9145 16.3129L26.9168 16.3205L27.2035 16.232ZM26.9795 15.4L26.6865 15.4651L26.6891 15.4753L26.9795 15.4ZM26.7875 14.264L27.0847 14.2235L27.0494 13.964H26.7875V14.264ZM26.7235 14.264V13.964H26.462L26.4263 14.223L26.7235 14.264ZM26.5795 15.08L26.872 15.1465L26.872 15.1465L26.5795 15.08ZM26.4195 15.704L26.1317 15.6193L26.1317 15.6193L26.4195 15.704ZM26.2595 16.232L25.9731 16.1425L25.9723 16.1453L26.2595 16.232ZM24.8195 21V21.3H25.0423L25.1067 21.0867L24.8195 21ZM23.7227 20.9467L22.1387 12.1787L21.5483 12.2853L23.1323 21.0533L23.7227 20.9467ZM21.8435 12.532H23.2995V11.932H21.8435V12.532ZM23.0034 12.2805L23.6274 16.0885L24.2196 15.9915L23.5956 12.1835L23.0034 12.2805ZM23.6279 16.091C23.6797 16.3917 23.7323 16.7849 23.7853 17.2724L24.3817 17.2076C24.3281 16.7138 24.274 16.307 24.2191 15.989L23.6279 16.091ZM23.7853 17.2724C23.8386 17.7634 23.9027 18.345 23.9773 19.0171L24.5737 18.9509C24.499 18.279 24.435 17.6979 24.3817 17.2076L23.7853 17.2724ZM24.2755 19.284H24.3235V18.684H24.2755V19.284ZM24.6171 19.0455C24.7128 18.5886 24.8029 18.1804 24.8875 17.8207L24.3035 17.6833C24.2175 18.0489 24.1262 18.462 24.0299 18.9225L24.6171 19.0455ZM24.8855 17.8288C24.9816 17.4657 25.0671 17.1399 25.1419 16.8513L24.5611 16.7007C24.4866 16.9881 24.4014 17.3129 24.3055 17.6752L24.8855 17.8288ZM25.14 16.8584C25.2253 16.5597 25.3 16.2984 25.364 16.0744L24.787 15.9096C24.723 16.1336 24.6484 16.3949 24.563 16.6936L25.14 16.8584ZM25.364 16.0743L26.436 12.3143L25.859 12.1497L24.787 15.9097L25.364 16.0743ZM26.1475 12.532H27.3155V11.932H26.1475V12.532ZM27.0273 12.3154L28.1153 16.0754L28.6917 15.9086L27.6037 12.1486L27.0273 12.3154ZM28.115 16.0744C28.1779 16.2944 28.2464 16.5524 28.3205 16.8488L28.9025 16.7032C28.8273 16.4023 28.7571 16.1376 28.692 15.9096L28.115 16.0744ZM28.3239 16.8612C28.4072 17.1427 28.4912 17.4623 28.5755 17.8207L29.1595 17.6833C29.0732 17.3163 28.9864 16.9853 28.8991 16.6908L28.3239 16.8612ZM28.5775 17.8288C28.6719 18.1853 28.7667 18.5907 28.8619 19.0455L29.4491 18.9225C29.3523 18.4599 29.2551 18.044 29.1575 17.6752L28.5775 17.8288ZM29.1555 19.284H29.2195V18.684H29.1555V19.284ZM29.5181 19.0124C29.5821 18.3413 29.6406 17.7614 29.6937 17.2724L29.0973 17.2076C29.0437 17.7 28.9849 18.2827 28.9209 18.9556L29.5181 19.0124ZM29.6937 17.2724C29.7467 16.7849 29.7993 16.3917 29.8511 16.091L29.2599 15.989C29.205 16.307 29.1509 16.7138 29.0973 17.2076L29.6937 17.2724ZM29.8514 16.0897L30.4914 12.2817L29.8996 12.1823L29.2596 15.9903L29.8514 16.0897ZM30.1955 12.532H31.6515V11.932H30.1955V12.532ZM31.3563 12.1787L29.7723 20.9467L30.3627 21.0533L31.9467 12.2853L31.3563 12.1787ZM30.0675 20.7H28.6755V21.3H30.0675V20.7ZM28.9622 20.9115L27.4902 16.1435L26.9168 16.3205L28.3889 21.0885L28.9622 20.9115ZM27.4924 16.1511C27.4183 15.8864 27.3441 15.611 27.2699 15.3247L26.6891 15.4753C26.7642 15.765 26.8394 16.0442 26.9146 16.3129L27.4924 16.1511ZM27.2724 15.3349C27.2109 15.0584 27.1482 14.6888 27.0847 14.2235L26.4903 14.3045C26.5548 14.7778 26.6201 15.1656 26.6866 15.4651L27.2724 15.3349ZM26.7875 13.964H26.7235V14.564H26.7875V13.964ZM26.4263 14.223C26.3845 14.5261 26.3379 14.7893 26.287 15.0135L26.872 15.1465C26.9278 14.9013 26.9772 14.6205 27.0207 14.305L26.4263 14.223ZM26.287 15.0135C26.2347 15.2436 26.1829 15.4454 26.1317 15.6193L26.7073 15.7886C26.7628 15.6 26.8177 15.3857 26.872 15.1465L26.287 15.0135ZM26.1317 15.6193C26.0788 15.7992 26.026 15.9735 25.9732 16.1425L26.5458 16.3215C26.5997 16.1491 26.6535 15.9715 26.7073 15.7886L26.1317 15.6193ZM25.9723 16.1453L24.5323 20.9133L25.1067 21.0867L26.5467 16.3187L25.9723 16.1453ZM24.8195 20.7H23.4275V21.3H24.8195V20.7ZM34.0725 13.832H33.7725V14.132H34.0725V13.832ZM33.6085 9.32L33.4043 9.53987L33.4082 9.54337L33.6085 9.32ZM32.4565 8.904H32.1565V9.204H32.4565V8.904ZM32.4565 8.296L32.3374 8.02064L32.1565 8.09888V8.296H32.4565ZM33.6405 7.784V7.484H33.5784L33.5214 7.50864L33.6405 7.784ZM37.9125 7.784H38.2125V7.484H37.9125V7.784ZM37.9125 8.904V9.204H38.2125V8.904H37.9125ZM34.6645 8.904V8.604H34.4303L34.3735 8.83124L34.6645 8.904ZM34.6485 8.968L34.3575 8.89524L34.3067 9.09808L34.4795 9.21587L34.6485 8.968ZM35.2405 9.704L34.9702 9.83477L34.9758 9.84518L35.2405 9.704ZM35.4965 13.832V14.132H35.7965V13.832H35.4965ZM34.9845 21.016L35.0861 20.7337L35.0861 20.7337L34.9845 21.016ZM34.3285 20.504L34.0822 20.6753L34.0822 20.6753L34.3285 20.504ZM34.0725 12.232V11.932H33.7725V12.232H34.0725ZM35.4965 12.232H35.7965V11.932H35.4965V12.232ZM35.6565 19.832L35.4444 20.0441L35.4444 20.0441L35.6565 19.832ZM36.4725 19.96L36.4137 19.6658L36.4137 19.6658L36.4725 19.96ZM36.7765 19.88L37.0715 19.8255L37.0089 19.4863L36.6816 19.5954L36.7765 19.88ZM36.9685 20.92L37.0969 21.1911L37.3054 21.0924L37.2635 20.8655L36.9685 20.92ZM36.3765 21.112L36.3272 20.8161L36.3272 20.8161L36.3765 21.112ZM34.3725 13.832V10.696H33.7725V13.832H34.3725ZM34.3725 10.696C34.3725 10.0166 34.2091 9.45559 33.8088 9.09663L33.4082 9.54337C33.6265 9.73908 33.7725 10.0954 33.7725 10.696H34.3725ZM33.8126 9.10016C33.4501 8.7635 32.9893 8.604 32.4565 8.604V9.204C32.8624 9.204 33.1696 9.32183 33.4044 9.53984L33.8126 9.10016ZM32.7565 8.904V8.296H32.1565V8.904H32.7565ZM32.5756 8.57136L33.7596 8.05936L33.5214 7.50864L32.3374 8.02064L32.5756 8.57136ZM33.6405 8.084H37.9125V7.484H33.6405V8.084ZM37.6125 7.784V8.904H38.2125V7.784H37.6125ZM37.9125 8.604H34.6645V9.204H37.9125V8.604ZM34.3735 8.83124L34.3575 8.89524L34.9395 9.04076L34.9555 8.97676L34.3735 8.83124ZM34.4795 9.21587C34.6599 9.33886 34.8268 9.5377 34.9705 9.83467L35.5105 9.57333C35.3342 9.20896 35.1064 8.91714 34.8175 8.72013L34.4795 9.21587ZM34.9758 9.84518C35.1153 10.1068 35.1965 10.4743 35.1965 10.968H35.7965C35.7965 10.4164 35.707 9.94121 35.5052 9.56282L34.9758 9.84518ZM35.1965 10.968V13.832H35.7965V10.968H35.1965ZM35.4965 13.532H34.0725V14.132H35.4965V13.532ZM35.8165 20.86C35.5626 20.86 35.3197 20.8178 35.0861 20.7337L34.8829 21.2983C35.1827 21.4062 35.4944 21.46 35.8165 21.46V20.86ZM35.0861 20.7337C34.8813 20.66 34.7119 20.5299 34.5748 20.3327L34.0822 20.6753C34.2864 20.9688 34.5544 21.18 34.8829 21.2983L35.0861 20.7337ZM34.5748 20.3327C34.4519 20.156 34.3725 19.8831 34.3725 19.48H33.7725C33.7725 19.9516 33.8638 20.3613 34.0822 20.6753L34.5748 20.3327ZM34.3725 19.48V12.232H33.7725V19.48H34.3725ZM34.0725 12.532H35.4965V11.932H34.0725V12.532ZM35.1965 12.232V19.304H35.7965V12.232H35.1965ZM35.1965 19.304C35.1965 19.5813 35.2549 19.8547 35.4444 20.0441L35.8686 19.6199C35.8447 19.596 35.7965 19.5174 35.7965 19.304H35.1965ZM35.4444 20.0441C35.6318 20.2315 35.8973 20.292 36.1685 20.292V19.692C35.9704 19.692 35.8946 19.6458 35.8686 19.6199L35.4444 20.0441ZM36.1685 20.292C36.2867 20.292 36.4078 20.2789 36.5313 20.2542L36.4137 19.6658C36.3239 19.6838 36.2423 19.692 36.1685 19.692V20.292ZM36.5313 20.2542C36.6493 20.2306 36.7627 20.2008 36.8714 20.1646L36.6816 19.5954C36.5983 19.6232 36.509 19.6468 36.4137 19.6658L36.5313 20.2542ZM36.4815 19.9345L36.6735 20.9745L37.2635 20.8655L37.0715 19.8255L36.4815 19.9345ZM36.8401 20.6489C36.6588 20.7348 36.488 20.7893 36.3272 20.8161L36.4258 21.4079C36.649 21.3707 36.8729 21.2972 37.0969 21.1911L36.8401 20.6489ZM36.3272 20.8161C36.1503 20.8456 35.9802 20.86 35.8165 20.86V21.46C36.0155 21.46 36.2187 21.4424 36.4258 21.4079L36.3272 20.8161ZM38.6584 21H38.3584V21.3H38.6584V21ZM38.6584 12.232V11.932H38.3584V12.232H38.6584ZM40.0824 12.232H40.3824V11.932H40.0824V12.232ZM40.0824 16.024H39.7824V16.324H40.0824V16.024ZM40.1304 16.024V16.324H40.2581L40.3466 16.232L40.1304 16.024ZM43.7784 12.232V11.932H43.6507L43.5622 12.024L43.7784 12.232ZM45.4424 12.232H45.7424V11.932H45.4424V12.232ZM45.4424 12.28L45.6558 12.4909L45.7424 12.4032V12.28H45.4424ZM40.0824 17.704L39.869 17.4931L39.7824 17.5808V17.704H40.0824ZM40.0824 21V21.3H40.3824V21H40.0824ZM44.0984 21H43.7984V21.3H44.0984V21ZM43.5224 16.44L43.7251 16.2189L43.7251 16.2189L43.5224 16.44ZM41.6184 15.912L41.3841 15.7246L40.9942 16.212H41.6184V15.912ZM42.4504 14.872V14.572H42.3062L42.2161 14.6846L42.4504 14.872ZM44.1304 15.24L43.9862 15.5032L43.9937 15.5071L44.1304 15.24ZM45.1704 16.264L44.9046 16.4032L44.9046 16.4032L45.1704 16.264ZM45.5224 21V21.3H45.8224V21H45.5224ZM38.9584 21V12.232H38.3584V21H38.9584ZM38.6584 12.532H40.0824V11.932H38.6584V12.532ZM39.7824 12.232V16.024H40.3824V12.232H39.7824ZM40.0824 16.324H40.1304V15.724H40.0824V16.324ZM40.3466 16.232L43.9946 12.44L43.5622 12.024L39.9142 15.816L40.3466 16.232ZM43.7784 12.532H45.4424V11.932H43.7784V12.532ZM45.1424 12.232V12.28H45.7424V12.232H45.1424ZM45.229 12.0691L39.869 17.4931L40.2958 17.9149L45.6558 12.4909L45.229 12.0691ZM39.7824 17.704V21H40.3824V17.704H39.7824ZM40.0824 20.7H38.6584V21.3H40.0824V20.7ZM44.3984 21V17.912H43.7984V21H44.3984ZM44.3984 17.912C44.3984 17.2175 44.1838 16.6393 43.7251 16.2189L43.3197 16.6611C43.629 16.9447 43.7984 17.3478 43.7984 17.912H44.3984ZM43.7251 16.2189C43.2581 15.7908 42.5302 15.612 41.6184 15.612V16.212C42.4773 16.212 43.0186 16.3852 43.3197 16.6611L43.7251 16.2189ZM41.8526 16.0994L42.6846 15.0594L42.2161 14.6846L41.3841 15.7246L41.8526 16.0994ZM42.4504 15.172C43.0874 15.172 43.5942 15.2884 43.9863 15.5031L44.2745 14.9769C43.7705 14.7009 43.1574 14.572 42.4504 14.572V15.172ZM43.9937 15.5071C44.3983 15.7141 44.6993 16.0112 44.9046 16.4032L45.4361 16.1248C45.1721 15.6208 44.7798 15.2353 44.267 14.9729L43.9937 15.5071ZM44.9046 16.4032C45.112 16.799 45.2224 17.2875 45.2224 17.88H45.8224C45.8224 17.2138 45.6981 16.625 45.4361 16.1248L44.9046 16.4032ZM45.2224 17.88V21H45.8224V17.88H45.2224ZM45.5224 20.7H44.0984V21.3H45.5224V20.7ZM53.057 21H52.757V21.3H53.057V21ZM52.577 13.688L52.3685 13.904L52.3763 13.911L52.577 13.688ZM49.473 13.464L49.5563 13.7522L49.5603 13.751L49.473 13.464ZM48.097 14.056H47.797V14.5792L48.2486 14.3149L48.097 14.056ZM48.097 12.728L47.9592 12.4615L47.797 12.5454V12.728H48.097ZM49.345 12.28L49.2695 11.9896L49.2681 11.99L49.345 12.28ZM52.609 12.264L52.5207 12.5508L52.5276 12.5527L52.609 12.264ZM53.633 12.808L53.4298 13.0288L53.4342 13.0327L53.633 12.808ZM54.257 13.752L53.9748 13.8539L53.9758 13.8565L54.257 13.752ZM54.465 21V21.3H54.765V21H54.465ZM48.145 20.52L47.9453 20.744L47.9506 20.7485L48.145 20.52ZM48.369 16.6L48.1909 16.3586L48.189 16.36L48.369 16.6ZM51.521 15.752L51.5386 16.0515L51.5394 16.0514L51.521 15.752ZM53.345 15.64H53.645V15.321L53.3266 15.3406L53.345 15.64ZM53.345 16.824L53.3655 17.1233L53.645 17.1041V16.824H53.345ZM51.713 16.936L51.7335 17.2353L51.713 16.936ZM49.457 17.448L49.2951 17.1954L49.2921 17.1974L49.457 17.448ZM49.297 19.672L49.117 19.912L49.121 19.915L49.297 19.672ZM51.073 19.976L51.1154 20.273L51.1257 20.2715L51.1359 20.2693L51.073 19.976ZM51.505 19.864L51.7987 19.8026L51.7313 19.4805L51.4168 19.5773L51.505 19.864ZM51.729 20.936L51.8327 21.2175L52.0756 21.128L52.0227 20.8746L51.729 20.936ZM51.057 21.096L51.0182 20.7985L51.0107 20.7995L51.0033 20.8008L51.057 21.096ZM53.357 21V15.16H52.757V21H53.357ZM53.357 15.16C53.357 14.4323 53.1907 13.8367 52.7777 13.465L52.3763 13.911C52.6033 14.1153 52.757 14.5011 52.757 15.16H53.357ZM52.7854 13.4722C52.3917 13.0921 51.7713 12.94 51.009 12.94V13.54C51.7187 13.54 52.1437 13.6866 52.3686 13.9038L52.7854 13.4722ZM51.009 12.94C50.4473 12.94 49.9057 13.0187 49.3857 13.177L49.5603 13.751C50.0216 13.6106 50.5041 13.54 51.009 13.54V12.94ZM49.3897 13.1758C48.8855 13.3215 48.4039 13.5287 47.9454 13.7971L48.2486 14.3149C48.6647 14.0713 49.1005 13.8839 49.5563 13.7522L49.3897 13.1758ZM48.397 14.056V12.728H47.797V14.056H48.397ZM48.2348 12.9945C48.5172 12.8484 48.9101 12.7057 49.4219 12.57L49.2681 11.99C48.7345 12.1316 48.2954 12.2876 47.9592 12.4615L48.2348 12.9945ZM49.4205 12.5703C49.9248 12.4392 50.4962 12.372 51.137 12.372V11.772C50.4551 11.772 49.8318 11.8435 49.2695 11.9897L49.4205 12.5703ZM51.137 12.372C51.6808 12.372 52.1404 12.4337 52.5208 12.5507L52.6972 11.9773C52.2456 11.8383 51.7238 11.772 51.137 11.772V12.372ZM52.5276 12.5527C52.9069 12.6597 53.204 12.8209 53.4299 13.0288L53.8361 12.5872C53.5287 12.3044 53.1431 12.1029 52.6904 11.9753L52.5276 12.5527ZM53.4342 13.0327C53.6702 13.2414 53.8514 13.5122 53.9748 13.8539L54.5392 13.6501C54.3852 13.2238 54.1505 12.8653 53.8318 12.5833L53.4342 13.0327ZM53.9758 13.8565C54.099 14.1883 54.165 14.594 54.165 15.08H54.765C54.765 14.542 54.6923 14.0623 54.5382 13.6475L53.9758 13.8565ZM54.165 15.08V21H54.765V15.08H54.165ZM54.465 20.7H53.057V21.3H54.465V20.7ZM50.305 20.86C49.4077 20.86 48.7674 20.6558 48.3394 20.2915L47.9506 20.7485C48.5252 21.2376 49.325 21.46 50.305 21.46V20.86ZM48.3446 20.296C47.9323 19.9286 47.709 19.3947 47.709 18.648H47.109C47.109 19.5226 47.3763 20.2368 47.9454 20.744L48.3446 20.296ZM47.709 18.648C47.709 17.8455 47.9934 17.2567 48.549 16.84L48.189 16.36C47.4646 16.9033 47.109 17.6798 47.109 18.648H47.709ZM48.5471 16.8414C49.1268 16.4138 50.1058 16.1358 51.5386 16.0515L51.5034 15.4525C50.0348 15.5389 48.9126 15.8262 48.1909 16.3586L48.5471 16.8414ZM51.5394 16.0514L53.3634 15.9394L53.3266 15.3406L51.5026 15.4526L51.5394 16.0514ZM53.045 15.64V16.824H53.645V15.64H53.045ZM53.3245 16.5247L51.6925 16.6367L51.7335 17.2353L53.3655 17.1233L53.3245 16.5247ZM51.6925 16.6367C50.6011 16.7116 49.7806 16.8842 49.2951 17.1954L49.6189 17.7006C49.9654 17.4785 50.6489 17.3097 51.7335 17.2353L51.6925 16.6367ZM49.2921 17.1974C48.797 17.5231 48.549 18.0097 48.549 18.616H49.149C49.149 18.1983 49.3063 17.9062 49.6219 17.6986L49.2921 17.1974ZM48.549 18.616C48.549 19.1608 48.7219 19.6157 49.117 19.912L49.477 19.432C49.2748 19.2803 49.149 19.0312 49.149 18.616H48.549ZM49.121 19.915C49.4992 20.1888 49.9957 20.308 50.577 20.308V19.708C50.0703 19.708 49.7135 19.6032 49.473 19.429L49.121 19.915ZM50.577 20.308C50.7698 20.308 50.9496 20.2967 51.1154 20.273L51.0306 19.679C50.8978 19.698 50.7469 19.708 50.577 19.708V20.308ZM51.1359 20.2693C51.2933 20.2356 51.4458 20.1961 51.5932 20.1507L51.4168 19.5773C51.2869 19.6172 51.1514 19.6524 51.0101 19.6827L51.1359 20.2693ZM51.2113 19.9254L51.4353 20.9974L52.0227 20.8746L51.7987 19.8026L51.2113 19.9254ZM51.6253 20.6545C51.4464 20.7204 51.2445 20.769 51.0182 20.7985L51.0958 21.3935C51.3602 21.359 51.6063 21.3009 51.8327 21.2175L51.6253 20.6545ZM51.0033 20.8008C50.7883 20.8399 50.5557 20.86 50.305 20.86V21.46C50.5876 21.46 50.8564 21.4374 51.1107 21.3912L51.0033 20.8008ZM58.0376 20.568L57.844 20.7973L57.8496 20.8018L58.0376 20.568ZM57.0136 18.936L56.7248 19.0172L56.726 19.0214L57.0136 18.936ZM56.9976 14.44L56.712 14.3482L56.711 14.3514L56.9976 14.44ZM57.7976 13.032L57.5855 12.8199L57.5855 12.8199L57.7976 13.032ZM59.0456 12.296L59.1289 12.5842L59.133 12.583L59.0456 12.296ZM62.7416 12.456L62.6118 12.7265L62.6183 12.7295L62.7416 12.456ZM63.9416 13.512L64.2036 13.3658L64.2036 13.3658L63.9416 13.512ZM64.3256 21V21.3H64.6256V21H64.3256ZM62.9176 21H62.6176V21.3H62.9176V21ZM62.4216 13.784L62.2029 13.9894L62.2062 13.9927L62.4216 13.784ZM59.3816 13.528L59.2564 13.2554L59.2535 13.2567L59.3816 13.528ZM58.4696 14.536L58.1967 14.4114L58.1945 14.4164L58.4696 14.536ZM58.3256 18.376L58.0334 18.4444L58.0353 18.4517L58.3256 18.376ZM60.7256 19.944L60.7712 20.2405L60.7712 20.2405L60.7256 19.944ZM61.1256 19.848L61.4231 19.8092L61.376 19.4483L61.0308 19.5634L61.1256 19.848ZM61.2696 20.952L61.3899 21.2268L61.5962 21.1366L61.5671 20.9132L61.2696 20.952ZM60.6776 21.112L60.6352 20.815L60.6331 20.8153L60.6776 21.112ZM60.0536 20.86C59.2445 20.86 58.6468 20.673 58.2257 20.3342L57.8496 20.8018C58.4098 21.2523 59.1561 21.46 60.0536 21.46V20.86ZM58.2312 20.3388C57.8017 19.9761 57.4895 19.4849 57.3012 18.8506L56.726 19.0214C56.9431 19.7524 57.3136 20.3492 57.8441 20.7972L58.2312 20.3388ZM57.3024 18.8548C57.1189 18.2023 57.0256 17.4781 57.0256 16.68H56.4256C56.4256 17.5246 56.5243 18.3043 56.7248 19.0172L57.3024 18.8548ZM57.0256 16.68C57.0256 15.7905 57.1149 15.0764 57.2842 14.5286L56.711 14.3514C56.5177 14.9769 56.4256 15.7562 56.4256 16.68H57.0256ZM57.2832 14.5318C57.4649 13.9667 57.7107 13.5432 58.0098 13.2441L57.5855 12.8199C57.2019 13.2035 56.9144 13.7186 56.712 14.3482L57.2832 14.5318ZM58.0098 13.2441C58.3258 12.9281 58.6974 12.7089 59.1289 12.5842L58.9624 12.0078C58.4339 12.1605 57.9735 12.4319 57.5855 12.8199L58.0098 13.2441ZM59.133 12.583C59.5916 12.4434 60.1004 12.372 60.6616 12.372V11.772C60.0495 11.772 59.481 11.8499 58.9583 12.009L59.133 12.583ZM60.6616 12.372C61.4884 12.372 62.1328 12.4966 62.6118 12.7265L62.8714 12.1855C62.2837 11.9034 61.5415 11.772 60.6616 11.772V12.372ZM62.6183 12.7295C63.112 12.9521 63.4592 13.2632 63.6797 13.6582L64.2036 13.3658C63.912 12.8434 63.4593 12.4506 62.865 12.1825L62.6183 12.7295ZM63.6797 13.6582C63.9058 14.0634 64.0256 14.5601 64.0256 15.16H64.6256C64.6256 14.4799 64.4894 13.8779 64.2036 13.3658L63.6797 13.6582ZM64.0256 15.16V21H64.6256V15.16H64.0256ZM64.3256 20.7H62.9176V21.3H64.3256V20.7ZM63.2176 21V15.288H62.6176V21H63.2176ZM63.2176 15.288C63.2176 14.5796 63.0402 13.9914 62.6371 13.5753L62.2062 13.9927C62.4644 14.2593 62.6176 14.6737 62.6176 15.288H63.2176ZM62.6403 13.5786C62.2245 13.136 61.5496 12.956 60.7096 12.956V13.556C61.491 13.556 61.9574 13.728 62.203 13.9894L62.6403 13.5786ZM60.7096 12.956C60.1813 12.956 59.6951 13.0538 59.2564 13.2554L59.5069 13.8006C59.8574 13.6395 60.2566 13.556 60.7096 13.556V12.956ZM59.2535 13.2567C58.7897 13.4758 58.442 13.8741 58.1967 14.4114L58.7425 14.6606C58.9453 14.2165 59.2056 13.9429 59.5097 13.7993L59.2535 13.2567ZM58.1945 14.4164C57.9566 14.9635 57.8496 15.7325 57.8496 16.696H58.4496C58.4496 15.7608 58.5559 15.0899 58.7447 14.6556L58.1945 14.4164ZM57.8496 16.696C57.8496 17.3332 57.91 17.9167 58.0335 18.4444L58.6177 18.3076C58.5066 17.8327 58.4496 17.2961 58.4496 16.696H57.8496ZM58.0353 18.4517C58.1748 18.9864 58.4185 19.4296 58.7772 19.7636L59.1861 19.3244C58.9261 19.0824 58.7324 18.7469 58.6159 18.3003L58.0353 18.4517ZM58.7772 19.7636C59.1576 20.1178 59.6715 20.276 60.2776 20.276V19.676C59.7745 19.676 59.4243 19.5462 59.1861 19.3244L58.7772 19.7636ZM60.2776 20.276C60.4508 20.276 60.6156 20.2645 60.7712 20.2405L60.68 19.6475C60.5584 19.6662 60.4244 19.676 60.2776 19.676V20.276ZM60.7712 20.2405C60.926 20.2167 61.0758 20.1808 61.2205 20.1326L61.0308 19.5634C60.9194 19.6005 60.8026 19.6286 60.68 19.6475L60.7712 20.2405ZM60.8281 19.8868L60.9721 20.9908L61.5671 20.9132L61.4231 19.8092L60.8281 19.8868ZM61.1494 20.6772C61.0082 20.7389 60.8379 20.7861 60.6352 20.815L60.7201 21.409C60.9653 21.3739 61.1897 21.3144 61.3899 21.2268L61.1494 20.6772ZM60.6331 20.8153C60.4336 20.8453 60.2405 20.86 60.0536 20.86V21.46C60.2721 21.46 60.495 21.4427 60.7221 21.4087L60.6331 20.8153Z" fill="#FF2E63" mask="url(#path-4-outside-1_400_495)"/>
<defs>
<clipPath id="clip0_400_495">
<rect width="19" height="18" fill="white" transform="translate(86 7)"/>
</clipPath>
</defs>
</svg>
